<?xml version="1.0" encoding="utf-8"?>
<!-- Generator: Adobe Illustrator 22.1.0, SVG Export Plug-In . SVG Version: 6.00 Build 0)  -->
<svg version="1.1" id="Layer_1" xmlns="http://www.w3.org/2000/svg" xmlns:xlink="http://www.w3.org/1999/xlink" x="0px" y="0px"
	 viewBox="0 0 24 24" style="enable-background:new 0 0 24 24;" xml:space="preserve">
<style type="text/css">
	.st0{fill:none;}
</style>
<g>
	<path d="M0.9,11.3c0.8,0,1.5,0,2.2,0c0.5,0,0.8-0.1,1.1-0.5c0.3-0.5,0.8-1,1.1-1.5c0.3-0.5,0.7-0.7,1.3-0.6c0.6,0,1.3,0,1.9,0
		c0-0.3,0.1-0.5,0.1-0.8c0,0,0,0,0.1,0c1.1,0.2,1.2-0.7,1.5-1.3c0.1-0.1,0.4-0.1,0.7-0.2c-0.1,0.3-0.1,0.4-0.2,0.5
		c-0.1,0.4,0.2,0.9,0.6,0.9c0.8,0,1.6,0,2.4,0c0,0.3,0,0.5,0.1,0.8c1.4,0,2.7,0,4,0c1.1,0,1.3,0.1,1.6,1.1c0.3,1.1,0.8,1.9,2.2,1.4
		c0.5,1.4,1,2.6,1.5,3.9c-0.9-0.2-1.8-0.5-2.7-0.7c-1.3-0.2-2.6-0.1-3.9,0.2c-2.3,0.7-4.5,0.8-6.8,0.2c-1.9-0.5-3.8-0.3-5.7,0.3
		c-0.3,0.1-0.5,0.1-0.7-0.2C2.7,13.7,1.8,12.6,0.9,11.3z M8.7,9.6c0,0.6,0,1.1,0,1.7c1,0,1.9,0,2.9,0c0-0.6,0-1.1,0-1.7
		C10.6,9.6,9.7,9.6,8.7,9.6z M15.3,11.2c0-0.6,0-1.1,0-1.7c-1,0-1.9,0-2.9,0c0,0.6,0,1.1,0,1.7C13.4,11.2,14.3,11.2,15.3,11.2z
		 M16.1,9.5c0,0.6,0,1.2,0,1.7c1,0,2,0,3,0c-0.2-0.4-0.3-0.9-0.5-1.2c-0.1-0.2-0.4-0.4-0.7-0.5C17.4,9.5,16.7,9.5,16.1,9.5z
		 M5.1,11.2c1,0,1.8,0,2.7,0c0-0.6,0-1.1,0-1.6C6.4,9.2,5.8,10.2,5.1,11.2z"/>
	<path d="M4.5,16.2c1.9-0.7,3.7-0.7,5.5-0.3c2.2,0.5,4.3,0.6,6.5-0.1c1.4-0.4,2.9-0.5,4.4-0.3c1.1,0.2,1.3,0.3,1.5,1.4
		c-0.6-0.1-1.2-0.2-1.8-0.3c-1.5-0.2-2.9-0.1-4.3,0.4c-2,0.6-4,0.6-6.1,0.1c-1.6-0.4-3.2-0.5-4.7,0C4.8,17.2,4.8,16.5,4.5,16.2z"/>
</g>
<path class="st0" d="M0,0h24v24H0V0z"/>
</svg>
