<?xml version="1.0" encoding="utf-8"?>
<!-- Generator: Adobe Illustrator 22.1.0, SVG Export Plug-In . SVG Version: 6.00 Build 0)  -->
<svg version="1.1" id="Layer_1" xmlns="http://www.w3.org/2000/svg" xmlns:xlink="http://www.w3.org/1999/xlink" x="0px" y="0px"
	 viewBox="0 0 14.4 20.3" style="enable-background:new 0 0 14.4 20.3;" xml:space="preserve">
<style type="text/css">
	.st0{fill:none;}
	.st1{fill:#FF6600;}
	.st2{fill:#FFFFFF;}
</style>
<path class="st0" d="M-4.8-1.8h24v24h-24V-1.8z"/>
<g>
	<path class="st1" d="M7.2,0.2c-3.9,0-7,3.1-7,7c0,5.3,7,13,7,13s7-7.7,7-13C14.2,3.3,11.1,0.2,7.2,0.2z"/>
	<path class="st2" d="M10.7,10.7c-0.6,0-1.2-0.2-1.8-0.6c-1.1,0.7-2.4,0.7-3.5,0c-0.5,0.4-1.1,0.6-1.8,0.6H2.8v0.9h0.9
		c0.6,0,1.2-0.2,1.8-0.4c1.1,0.6,2.4,0.6,3.5,0c0.6,0.3,1.1,0.4,1.8,0.4h0.9v-0.9H10.7z M3.7,9.9L3.7,9.9C4.4,9.9,5,9.5,5.5,9
		c0.4,0.5,1.1,0.9,1.8,0.9S8.5,9.5,9,9c0.4,0.5,1.1,0.9,1.8,0.9h0l0.8-2.9c0-0.1,0-0.2,0-0.3c-0.1-0.1-0.1-0.2-0.3-0.2l-0.6-0.2v-2
		c0-0.5-0.4-0.9-0.9-0.9H8.5V2H5.9v1.3H4.6c-0.5,0-0.9,0.4-0.9,0.9v2L3.1,6.4C3,6.4,2.9,6.5,2.9,6.6c-0.1,0.1-0.1,0.2,0,0.3L3.7,9.9
		z M4.6,4.2h5.3v1.7L7.2,5L4.6,5.9V4.2z"/>
</g>
</svg>
