<?xml version="1.0" encoding="utf-8"?>
<!-- Generator: Adobe Illustrator 22.1.0, SVG Export Plug-In . SVG Version: 6.00 Build 0)  -->
<svg version="1.1" id="Layer_1" xmlns="http://www.w3.org/2000/svg" xmlns:xlink="http://www.w3.org/1999/xlink" x="0px" y="0px"
	 viewBox="0 0 14.4 20.3" style="enable-background:new 0 0 14.4 20.3;" xml:space="preserve">
<style type="text/css">
	.st0{fill:none;}
	.st1{fill:#FF6600;}
	.st2{fill:#FFFFFF;}
</style>
<path class="st0" d="M-4.8-1.8h24v24h-24C-4.8,22.2-4.8-1.8-4.8-1.8z"/>
<g>
	<path class="st1" d="M7.2,0.2c-3.9,0-7,3.1-7,7c0,5.3,7,13,7,13s7-7.7,7-13C14.2,3.3,11.1,0.2,7.2,0.2z"/>
</g>
<path class="st0" d="M-23.3-1.8h24v24h-24C-23.3,22.2-23.3-1.8-23.3-1.8z"/>
<polygon class="st2" points="9.4,7.3 9.4,11.7 5,11.7 5,7.3 1.8,7.3 7.2,1.9 12.6,7.3 "/>
</svg>
